<svg viewBox="0 0 16 16" xmlns="http://www.w3.org/2000/svg">
    <path fill="#24B2A0" opacity=".5"
          d="M11.022 2.563L7.198 7.286l.458.132 3.71-4.582zM13.446 10.423c.008-.211-.291-1.004-4.565-2.159a66.861 66.861 0 00-2.009-.502c-.167-.035-.326-.07-.476-.106l-4.141 5.12.608-.053c9.463-.802 10.565-1.868 10.583-2.3z"/>
    <path fill="#24B2A0"
          d="M8.062 7.595c.008 0 .017 0 .017.008.132.036.273.071.414.106l.089.027.414.105c1.885.511 4.326 1.278 4.81 2.239a.716.716 0 01.089.37c-.027.546-.67.995-2.01 1.392-.228.07-.475.132-.748.202-1.868.45-5.375.908-9.27 1.234l-.335.414.511-.035c8.389-.634 12.354-1.595 12.46-3.04.062-.837-1.146-1.683-3.683-2.573a39.054 39.054 0 00-3.34-.987l3.604-4.45-.344-.273L6.705 7.27l.476.105"/>
</svg>
